<svg xmlns="http://www.w3.org/2000/svg" width="56" height="61"><path fill="#ED0000" d="M47.369 6.539h-3.913V2.201c0-.865-.627-1.567-1.4-1.567-.773 0-1.4.702-1.4 1.567v4.338H15.344V2.201c0-.865-.627-1.567-1.4-1.567-.773 0-1.4.702-1.4 1.567v4.338H8.631c-4.64 0-8.4 4.207-8.4 9.397v35.115c0 5.19 3.76 9.397 8.4 9.397h38.738c4.64 0 8.4-4.207 8.4-9.397V15.936c0-5.19-3.76-9.397-8.4-9.397zM8.638 9.671h3.913v4.339c0 .865.627 1.566 1.4 1.566.773 0 1.4-.701 1.4-1.566V9.67h25.305v4.339c0 .865.627 1.566 1.4 1.566.773 0 1.4-.701 1.4-1.566V9.67h3.913c3.093 0 5.6 2.805 5.6 6.265v5.56H3.031v-5.56c0-3.46 2.507-6.265 5.6-6.265h.007zm38.731 47.645H8.631c-3.093 0-5.6-2.805-5.6-6.265V24.629h49.938V51.05c0 3.46-2.507 6.265-5.6 6.265z"/></svg>