<svg xmlns="http://www.w3.org/2000/svg" width="74" height="81"><g fill="#9B9B9B"><path d="M57.12 81H16.8a1.683 1.683 0 0 1-1.675-1.558l-3.247-42.408C5.2 36.254 0 30.539 0 23.625 0 16.168 6.18 9.87 13.494 9.87c1.529 0 3.029.299 4.428.878C20.282 4.234 27.618 0 36.96 0c8.777 0 14.916 3.564 18.716 10.884a11.595 11.595 0 0 1 4.751-1.016c7.315.002 13.494 6.3 13.494 13.757 0 6.914-5.2 12.63-11.878 13.409l-3.247 42.408A1.683 1.683 0 0 1 57.12 81zm-38.764-3.375h37.207l3.241-42.317c.069-.88.8-1.558 1.677-1.558 5.559 0 10.08-4.541 10.08-10.125 0-6.117-5.34-10.38-10.134-10.38-1.65 0-3.19.463-4.576 1.379a1.672 1.672 0 0 1-2.46-.73C50.23 6.719 45.01 3.376 36.961 3.376c-8.664 0-15.22 4.075-16.314 10.14a1.683 1.683 0 0 1-.99 1.252 1.67 1.67 0 0 1-1.585-.143 8.166 8.166 0 0 0-4.576-1.379c-4.795 0-10.136 4.263-10.136 10.38 0 5.584 4.521 10.125 10.08 10.125.878 0 1.608.679 1.675 1.558l3.24 42.317z"/><path d="M58.17 67.5H15.75c-.928 0-1.68-.756-1.68-1.688 0-.931.752-1.687 1.68-1.687h42.42c.929 0 1.68.756 1.68 1.688 0 .931-.751 1.687-1.68 1.687z"/><path d="M28.56 67.5c-.927 0-1.68-.756-1.68-1.688v-13.5c0-.931.753-1.687 1.68-1.687.928 0 1.68.756 1.68 1.688v13.5c0 .931-.752 1.687-1.68 1.687zm8.4 0c-.927 0-1.68-.756-1.68-1.688V48.939c0-.932.753-1.688 1.68-1.688.928 0 1.68.756 1.68 1.688v16.874c0 .932-.752 1.688-1.68 1.688zm8.4 0c-.927 0-1.68-.756-1.68-1.688v-13.5c0-.931.753-1.687 1.68-1.687.928 0 1.68.756 1.68 1.688v13.5c0 .931-.752 1.687-1.68 1.687z"/></g></svg>