<svg xmlns="http://www.w3.org/2000/svg" width="95" height="57"><path fill="#9B9B9B" d="M83.43 28.35c-.015.214-.04.426-.062.638.02-.212.049-.424.061-.638m7.393 20.95c-.509 2.772-1.755 3.29-2.164 3.46-3.124 1.304-9.242-1.863-14.196-4.957a12.005 12.005 0 0 0 1.849-2.57l5.105-9.661a17.75 17.75 0 0 0 1.725-4.974h-.001c6.44 5.102 9.027 11.385 7.682 18.702M66.094 10.613c.022.066.04.134.06.201-.02-.066-.037-.135-.06-.2m-.534-1.38c.081.186.162.37.236.56a17.917 17.917 0 0 0-.236-.56M62.568 47.74l-2.429-.659c.337-.79.603-1.619.773-2.485l5.615-25.963a16.35 16.35 0 0 0 .112-5.754v.002l1.907.516c4.547 1.23 8.185 4.31 9.978 8.444a13.744 13.744 0 0 1-.47 11.944l-5.107 9.662c-1.903 3.601-6.272 5.407-10.379 4.293M47.49 51.41c-4.756 0-8.831-3.19-9.702-7.621l-5.6-25.893c-.702-3.575.076-6.962 2.19-9.54 2.306-2.808 5.885-4.355 10.08-4.355h6.062c4.196 0 7.775 1.547 10.081 4.355 2.115 2.578 2.893 5.965 2.197 9.506l-5.615 25.964c-.861 4.393-4.94 7.584-9.693 7.584M28.885 10.616c-.02.06-.035.122-.053.182.018-.06.033-.121.053-.182m5.96 36.463l-2.434.66c-4.106 1.114-8.477-.69-10.38-4.292l-5.105-9.662a13.744 13.744 0 0 1-.47-11.944c1.793-4.135 5.43-7.213 9.977-8.444l1.91-.518a16.444 16.444 0 0 0 .117 5.79l5.6 25.892c.172.879.444 1.718.786 2.52v-.001M11.55 28.35c.013.214.04.426.06.638-.02-.212-.046-.424-.06-.638M6.321 52.76c-.409-.17-1.655-.688-2.164-3.46-1.345-7.317 1.241-13.6 7.682-18.702a17.75 17.75 0 0 0 1.724 4.974l5.106 9.66a12.005 12.005 0 0 0 1.849 2.571c-4.955 3.093-11.07 6.26-14.197 4.957m77.11-26.598c.033.482.035.963.025 1.445a17.59 17.59 0 0 0-1.44-7.287c-2.257-5.204-6.804-9.07-12.475-10.606l-4.296-1.163c-.47-.921-1.033-1.8-1.703-2.617C60.544 2.282 55.797.186 50.52.186h-6.06c-5.277 0-10.024 2.096-13.022 5.748a14.438 14.438 0 0 0-1.701 2.617l-4.298 1.163c-5.67 1.536-10.218 5.402-12.475 10.606a17.569 17.569 0 0 0-1.438 7.287c-.012-.482-.01-.963.022-1.445C4.755 30.82-1.715 38.419.412 49.99c.588 3.193 2.083 5.31 4.45 6.294.958.398 2.004.58 3.118.58 4.533 0 10.2-3.006 15.746-6.585a13.137 13.137 0 0 0 6.25 1.6c1.137 0 2.29-.147 3.429-.456l3.55-.962c2.529 2.93 6.34 4.764 10.535 4.764 4.197 0 8.012-1.838 10.539-4.763l3.546.96c1.14.31 2.29.457 3.429.457 2.21 0 4.357-.575 6.25-1.6 5.545 3.577 11.212 6.585 15.745 6.585 1.115 0 2.162-.182 3.119-.58 2.367-.984 3.862-3.101 4.45-6.293 2.126-11.572-4.344-19.17-11.136-23.83"/></svg>