<svg xmlns="http://www.w3.org/2000/svg" width="1440" height="619"><g fill="none" fill-rule="evenodd"><path fill="#6ECEEA" d="M0 35h430l172.53 43.251 235.143 53.559c56.658 9.917 129.017 12.396 217.074 7.435 173.507-16.711 197.594-19.149 338.99-60.994 18.55-3.873 33.972-10.35 46.263-19.431V619H0V35z"/><path fill="#00A0DE" d="M0 29.06v20.068c86.646-15.695 206.637-16.914 359.972-3.655C589.974 65.36 682.989 146 947.796 146c176.539 0 340.607-26.08 492.204-78.24V49.129c-103.566 58.827-255.808 88.24-456.727 88.24C755.687 137.368 525.565 0 295.361 0 173.744 0 75.29 9.687 0 29.06z"/></g></svg>