<svg width="32" height="22" xmlns="http://www.w3.org/2000/svg"><g fill="#B10000"><path d="M10.667.667c.533 0 .889.177 1.244.533.711.711.711 1.778 0 2.489l-8.889 8.889c-.71.71-1.778.71-2.489 0-.71-.711-.71-1.778 0-2.49L9.423 1.2c.355-.356.71-.533 1.244-.533z"/><path d="M1.778 9.556c.533 0 .889.177 1.244.533l8.89 8.889c.71.71.71 1.778 0 2.489-.712.71-1.779.71-2.49 0l-8.889-8.89c-.71-.71-.71-1.777 0-2.488.356-.356.711-.533 1.245-.533z"/><path d="M1.778 9.556h28.444c1.067 0 1.778.71 1.778 1.777s-.711 1.778-1.778 1.778H1.778C.71 13.111 0 12.4 0 11.333c0-1.066.711-1.777 1.778-1.777z"/></g></svg>