<svg xmlns="http://www.w3.org/2000/svg" width="103" height="74"><path fill="#9B9B9B" d="M95.936 27.519c-1.938 2.624-3.003 5.994-3.003 9.487v28.268a4.097 4.097 0 0 1-4.093 4.09H53.86a8.187 8.187 0 0 0 1.096-4.09V37.006c0-2.608.775-5.1 2.185-7.012 3.039-4.118 4.073-9.724 2.767-15.001-1.131-4.578-3.905-8.232-7.61-10.025-.133-.064-.276-.118-.411-.18h22.657c7.057.22 13.142 1.543 18.086 3.935 2.585 1.25 4.546 3.9 5.379 7.27 1.011 4.086.235 8.395-2.074 11.526zM48.987 73.203c-.08.024-.163.042-.245.064.082-.022.164-.04.245-.064zm-.997.22c-.094.014-.187.03-.282.043.095-.013.188-.03.282-.043zm2.993-1.103c-.056.033-.109.067-.164.099.055-.032.11-.066.164-.099zm.818-.567c-.029.023-.06.044-.089.066l.09-.066zm1.497-1.538l-.055.073.055-.073zM42.97 1.866c.08.017.156.036.236.054-.08-.018-.156-.037-.236-.054zm-2.56-.471c.133.02.262.043.393.065l-.392-.065zm-2.627-.356l.409.047-.41-.047zm-2.657-.24c.104.008.211.013.316.021-.105-.008-.212-.013-.316-.022zm-21.35 68.565a4.097 4.097 0 0 1-4.094-4.09V37.006c0-3.493-1.065-6.863-3.002-9.487-2.31-3.13-3.085-7.44-2.073-11.527.832-3.369 2.794-6.02 5.377-7.27 5.395-2.61 12.208-3.934 20.246-3.934 8.039 0 14.852 1.323 20.247 3.935 2.585 1.25 4.544 3.9 5.378 7.27 1.012 4.086.235 8.395-2.075 11.526-1.935 2.625-3 5.994-3 9.487v28.268a4.098 4.098 0 0 1-4.095 4.09h-32.91zm88.286-54.371c-1.132-4.578-3.906-8.232-7.61-10.025C88.976 2.32 82.323.855 74.61.616H33.015c-.153 0-.302.02-.445.05-.773-.024-1.545-.05-2.339-.05-8.675 0-16.098 1.466-22.068 4.352C4.459 6.761 1.686 10.415.555 14.991-.752 20.268.282 25.876 3.32 29.994c1.41 1.912 2.187 4.402 2.187 7.012v28.268c0 4.556 3.71 8.261 8.27 8.261H88.84c4.56 0 8.269-3.705 8.269-8.26v-28.27c0-2.61.777-5.1 2.187-7.012 3.038-4.118 4.072-9.724 2.767-15.001z"/></svg>