<svg xmlns="http://www.w3.org/2000/svg" width="72" height="77"><path fill="#9B9B9B" d="M61.602 69.88a4.08 4.08 0 0 1-3.99 3.157H55.5l3.467-28.814h8.659l-6.024 25.658zm-9.971 3.157h-7.79l1.202-28.814h10.055l-3.467 28.814zm-11.635 0h-8.024L30.77 44.223h10.428l-1.202 28.814zm-19.66 0L16.87 44.223h10.055l1.202 28.814h-7.79zm-5.978 0a4.082 4.082 0 0 1-3.992-3.156L4.342 44.223h8.66l3.467 28.814h-2.111zm-5.315-39.15l.232.228.183.179c.152.15.317.306.49.47.07.063.136.127.208.194.185.172.383.352.589.537l.222.2c.22.195.451.395.69.601l.236.202c.254.214.521.435.799.66.08.065.157.129.24.195.293.237.6.477.917.72.078.06.153.12.232.18.336.255.686.514 1.047.776l.214.157c.384.276.785.554 1.197.835.058.04.114.08.173.119.124.084.24.167.368.251H6.355c-.067-2.439.82-4.587 2.688-6.503zm.33-12.312c.478-1.433 1.459-2.558 2.984-3.417l.233.163.256.179c.184.129.39.268.609.415l.311.208c.296.195.62.404.968.623.053.032.096.062.15.095.403.253.845.52 1.315.797.13.076.275.158.41.236.354.205.718.412 1.104.627.192.107.393.214.593.323a73.237 73.237 0 0 0 3.102 1.58c.24.114.474.228.721.344.516.24 1.054.482 1.603.723.193.084.375.169.572.254.757.325 1.542.649 2.36.97.159.06.329.12.49.183.665.256 1.343.509 2.047.756.296.105.602.206.906.31a76.746 76.746 0 0 0 4.776 1.461c.37.103.74.204 1.117.302.695.18 1.408.35 2.129.517.343.08.677.162 1.025.239 1.076.235 2.174.457 3.307.657 2.92.519 5.53.894 7.899 1.221.489.068.982.137 1.449.2.014.002.027.005.042.006.653.09 1.274.175 1.88.26l.526.074c.5.072.974.142 1.439.214l.489.075c.529.084 1.025.17 1.504.26.2.036.387.075.578.113.298.06.584.122.86.186.193.045.388.09.571.137.396.1.772.207 1.115.322.101.033.187.073.284.107 1.136.414 1.972.92 2.445 1.601.724 1.05.843 2.815.358 5.495H24.663a55.23 55.23 0 0 1-6.658-4.026l-.135-.096a51.676 51.676 0 0 1-.918-.668c-.075-.056-.152-.11-.225-.166a57.068 57.068 0 0 1-1.998-1.578c-.21-.175-.415-.347-.61-.513l-.243-.212a37.803 37.803 0 0 1-.53-.467c-.08-.071-.153-.139-.23-.209a35.2 35.2 0 0 1-.452-.414l-.197-.186a44.88 44.88 0 0 1-.708-.688c-.049-.049-.108-.105-.153-.152a5.844 5.844 0 0 1-.158-.163c-.088-.088-.177-.18-.25-.256l-.104-.11-.2-.215-.052-.058c-.04-.042-.072-.078-.1-.109-.444-.844-2.522-5.073-1.369-8.53zm25.125-17.59c-.76 1.694-1.381 3.987-.702 6.235.684 2.261 2.473 3.913 5.316 4.906 1.939.677 4.052 1.066 6.096 1.443 6.506 1.2 12.678 2.337 14.849 12.434-.176-.04-.373-.075-.553-.115l-.14-.028c-.6-.126-1.237-.246-1.905-.36l-.325-.055a119.01 119.01 0 0 0-1.98-.304l-.381-.056c-.776-.111-1.584-.222-2.443-.34-.34-.046-.7-.097-1.051-.144-2.435-.335-5.133-.718-8.145-1.251a77.958 77.958 0 0 1-3.077-.615c-.307-.066-.607-.139-.91-.21a80.954 80.954 0 0 1-3.005-.751 72.543 72.543 0 0 1-2.008-.576c-.24-.072-.489-.142-.726-.216a76.813 76.813 0 0 1-2.554-.842c-.12-.042-.231-.085-.35-.127a73.956 73.956 0 0 1-2.045-.759c-.249-.096-.49-.193-.731-.29a73.815 73.815 0 0 1-3.801-1.637c-.144-.066-.295-.133-.434-.199a71.923 71.923 0 0 1-1.821-.893c-.132-.066-.252-.131-.382-.198a64.982 64.982 0 0 1-4.255-2.396l-.133-.08a46.69 46.69 0 0 1-1.034-.661l-.2-.132a30.225 30.225 0 0 1-.432-.292c2.668-3.52 10.132-12.09 19.262-11.49zM71.552 41.12a1.919 1.919 0 0 0-1.504-.726h-2.269c.521-3.424.18-5.854-1.078-7.673-.63-.913-1.47-1.611-2.478-2.185-2.138-14.742-11.1-16.402-18.318-17.733-1.988-.365-3.865-.713-5.523-1.292-1.617-.565-2.595-1.368-2.906-2.388-.586-1.917.958-4.57 1.6-5.425A1.913 1.913 0 0 0 38.02.685c-14.099-3.6-24.815 10.892-26.765 13.741-2.8 1.353-4.67 3.35-5.533 5.96-1.312 3.965.123 8.215 1.074 10.364-2.877 2.733-4.314 6.016-4.256 9.643h-.62a1.92 1.92 0 0 0-1.505.726 1.913 1.913 0 0 0-.365 1.626l6.576 28.01a7.905 7.905 0 0 0 7.732 6.113H57.61a7.906 7.906 0 0 0 7.732-6.114l6.576-28.01a1.914 1.914 0 0 0-.367-1.625z"/></svg>