<svg xmlns="http://www.w3.org/2000/svg" width="77" height="94"><g fill="none" fill-rule="evenodd" stroke="#9B9B9B" stroke-linecap="round" stroke-linejoin="round"><path stroke-width="4" d="M5 56h67a3 3 0 0 1 3 3v30a3 3 0 0 1-3 3H5a3 3 0 0 1-3-3V59a3 3 0 0 1 3-3zm4 0V28.32A7.303 7.303 0 0 1 16.318 21h44.364A7.303 7.303 0 0 1 68 28.32V56"/><path d="M23 36a7 7 0 0 1-6.919 7A7 7 0 0 1 9 36.165M38 36c0-2.5-1.43-4.812-3.75-6.062a7.966 7.966 0 0 0-7.5 0C24.43 31.188 23 33.499 23 36m30 0c0 3.847-3.327 6.974-7.45 7-4.122.026-7.494-3.058-7.55-6.905M68 36c0-2.5-1.43-4.812-3.75-6.062a7.966 7.966 0 0 0-7.5 0C54.43 31.188 53 33.499 53 36" stroke-width="3"/><path stroke-width="4" d="M16 71a7 7 0 1 1-14 0m29-1c0-2.5-1.43-4.812-3.75-6.062a7.966 7.966 0 0 0-7.5 0C17.43 65.188 16 67.499 16 70m29 1a7 7 0 1 1-14 0m30-1c0-2.5-1.525-4.812-4-6.062s-5.525-1.25-8 0c-2.475 1.25-4 3.561-4 6.062m30 1a7 7 0 1 1-14 0M34.339 2C30.838 2 28 4.056 28 7.796S33.916 15.136 38.987 19C44.057 15.137 50 11.581 50 7.796 50 4.01 47.162 2 43.661 2c-1.845 0-3.516 1.167-4.674 2.318C37.829 3.174 36.177 2 34.339 2z"/></g></svg>