<svg xmlns="http://www.w3.org/2000/svg" width="74" height="84"><g fill="#9B9B9B" fill-rule="evenodd"><path d="M73.128.81A3.263 3.263 0 0 0 71.13 0C40.783.252 17.018 13.414.48 39.124a2.897 2.897 0 0 0-.365 2.151 2.83 2.83 0 0 0 1.294 1.76l12.154 7.183c0 .015.013.028.028.028h.028l56.11 33.199c.43.265.928.4 1.433.391.484.006.96-.12 1.38-.363a2.739 2.739 0 0 0 1.43-2.431V2.795A2.835 2.835 0 0 0 73.128.81zm-4.782 75.313l-7.758-4.583c.09-.27.136-.553.14-.838a5.755 5.755 0 0 1 5.765-5.729 5.886 5.886 0 0 1 1.856.307v10.843h-.003zm0-36.189c-.955.62-2.068.95-3.206.95a5.742 5.742 0 0 1 0-11.485 5.824 5.824 0 0 1 3.206.95v9.585zm0-15.677a11.112 11.112 0 0 0-3.206-.448c-6.258 0-11.33 5.074-11.33 11.332 0 6.259 5.072 11.332 11.33 11.332a10.224 10.224 0 0 0 3.206-.475v13.554a10.423 10.423 0 0 0-1.855-.168 11.437 11.437 0 0 0-11.167 9.026L18.956 46.92a62.913 62.913 0 0 1 49.387-27.89v5.227h.003zm0-10.843A68.646 68.646 0 0 0 14.12 44.042l-7.285-4.304C21.63 18.081 42.302 6.651 68.346 5.673v7.74z"/><path d="M41.063 53.106a8.383 8.383 0 0 1-8.327-8.42 8.383 8.383 0 0 1 16.765.036 8.42 8.42 0 0 1-8.438 8.384zm0-11.178a2.794 2.794 0 1 0 2.812 2.794 2.807 2.807 0 0 0-2.812-2.794z"/></g></svg>